<?xml version="1.0" encoding="UTF-8" standalone="no"?>
<svg
   xmlns:dc="http://purl.org/dc/elements/1.1/"
   xmlns:cc="http://creativecommons.org/ns#"
   xmlns:rdf="http://www.w3.org/1999/02/22-rdf-syntax-ns#"
   xmlns:svg="http://www.w3.org/2000/svg"
   xmlns="http://www.w3.org/2000/svg"
   xml:space="preserve"
   style="enable-background:new 0 0 499.29 101.36;"
   viewBox="0 0 499.29 101.36"
   y="0px"
   x="0px"
   id="RGB_Navy__x26__Amber3"
   version="1.1"><metadata
   id="metadata17"><rdf:RDF><cc:Work
       rdf:about=""><dc:format>image/svg+xml</dc:format><dc:type
         rdf:resource="http://purl.org/dc/dcmitype/StillImage" /><dc:title></dc:title></cc:Work></rdf:RDF></metadata><defs
   id="defs15" />
<g
   id="g10">
	<g
   id="g6">
		<path
   id="path2"
   d="M93.41,70.22V46.36h23.85v23.86H93.41z"
   style="fill:#001A72;" />
		<path
   id="path4"
   d="M188.12,74.77c0,17.97-13.12,26.6-31.2,26.6c-18,0-31.89-8.23-33.35-27.18h19.21    c2.17,15.1,26.32,13.67,26.32,1.76c0-13.41-43.38-6.32-43.38-36.05c0-15.37,13.47-24.7,30.14-24.7c16.57,0,29.5,8.19,31.11,26.11    h-19.49c-1.41-13.92-22.17-11.94-22.17-2C145.3,53.43,188.12,45.02,188.12,74.77z M233.76,78.28c17.52,0,30.54-13.37,30.54-30.65    c0-17.28-13.02-30.77-30.54-30.77h-38.94V99.7h20.12V78.28H233.76z M214.94,61V34.13h15.98c7.46,0,13.26,5.44,13.26,13.49    c0,8.05-5.8,13.37-13.26,13.37H214.94z M316.8,99.7h21.78l-35.63-82.85H287.8L252.18,99.7h21.78l4.14-11.72h34.44L316.8,99.7z     M295.38,40.29l11.24,31.25h-22.61L295.38,40.29z M401.4,66.21l-42.13-49.35h-17.75V99.7h20.12V50.47l42.13,49.24h17.75V16.85    H401.4V66.21z M65.9,70.22c-3.19,7.7-10.39,13.62-21.75,13.62c-15.86,0-24.03-11.48-24.03-25.56c0-14.08,8.17-25.56,24.03-25.56    c11.37,0,18.57,5.94,21.76,13.65h20.01C82.02,29.78,66.65,15.2,44.27,15.2C16.81,15.2,0,34.84,0,58.28s16.81,43.08,44.27,43.08    c22.37,0,37.74-14.57,41.64-31.14H65.9z"
   style="fill:#001A72;" />
	</g>
	<path
   id="path8"
   d="M470.49,39.54l25.92-38.46V0h-65.05v16.85h33.09l-24.27,36.68v1.37h22.13   c11.53,0,17.88,5.26,17.88,14.8c0,9.1-6.57,15.22-16.34,15.22c-9.33,0-15.19-5.09-16.49-14.34l-0.09-0.63h-18.37l0.08,0.8   c1.9,18.59,15.64,30.6,35.01,30.6c17.35,0,35.29-12.21,35.29-32.63C499.29,51.99,488.29,40.9,470.49,39.54z"
   style="fill:#F1B300;" />
</g>
</svg>